**ABCDEFGHIJKLMNOPQRSTUVWXYZabcdefghijklmnopqrstuvwxyz**************************
**PARASOLID !"#$%&'()*+,-./:;<=>?@[\]^_`{|}~0123456789**************************
**PART1;
MC=AMD64;
MC_MODEL=Intel64 Family 6 Model 142 Stepping 10, GenuineIntel;
MC_ID=unknown;
OS=Windows_NT;
OS_RELEASE=unknown;
FRU=Parasolid Version 31.0, build 290,  9- 1-2019;
APPL=SOLIDWORKS 2019-2020260;
SITE=;
USER=unknown;
FORMAT=text;
GUISE=transmit;
KEY=campara;
FILE=campara.x_t;
DATE=Mon Jun 27 19:15:37 2022;
**PART2;
SCH=SCH_3100290_31001;
USFLD_SIZE=0;
**PART3;
**END_OF_HEADER*****************************************************************
T51 : TRANSMIT FILE created by modeller version 310029023 SCH_3100290_31001_1300
6215 0 12 34 CCCCCCI4 mesh1006 0 I8 polyline1008 0 CCCCCCCDI5 owner1040 0 CCCCCC
I13 boundary_mesh1006 0 I17 boundary_polyline1008 0 CCCA16 index_map_offset0 0 1
 dA9 index_map82 0 A17 node_id_index_map82 0 A20 schema_embedding_map82 0 A5 chi
ld12 0 A14 lowest_node_id0 0 1 dA16 mesh_offset_data206 0 Z1 310 2 3 0 0 0 0 0 0
 1e3 1e-8 0 4 0 1 0 1 1 5 6 7 0 0 0 8 9 0 0 0 0 0 0 0 0 81 255 2 2 302 10 1 11 0
 0 0 0 12 70 11 CI9 list_type0 0 1 uI10 notransmit0 0 1 lCCCDCCDI12 finger_index
0 0 1 dI12 finger_block1012 0 CZ3 0 4 T1 0 0 10 20 1 13 13 13 255 5 31 0 1 0 14
 0 0 15 0 67 255 6 30 0 16 17 0 0 +18 0 0 -1 .100683647162269 134 255 7 25 0 19
 18 0 0 +20 21 19 8 CCCCCCCA5 owner12 0 Z8 9 0 1 15 0 22 V0 16 255 9 5 0 ?23 0 1
9 18 0 0 1 17 255 23 0 24 23 23 0 25 9 0 0 +16 19 20 0 ?26 9 27 7 0 0 1 134 18 7
 0 9 28 7 29 +30 31 31 255 28 161 0 32 33 18 0 +0 0 .05 0 0 1 1 0 0 .053 141 255
 29 6 29 29 18 136 255 30 3 39 3 43 2 TTF1 34 35 36 135 255 31 2 0 45 255 117 34
 -.0557758675712588 .296630730617955 .05 .0102712771869053 .302390591642456 .05
 .0662765950474562 .295282252174418 .05 .1115652086231048 .285423132424432 .05 .
161284807346777 .272184396433255 .05 .20923558938205 .25428082369891 .05 .261445
170780224 .228313222155538 .05 .2972929059134725 .20682569069031 .05 .3275046305
932825 .1852228470455905 .05 .352626738940583 .15604180591558 .05 .3647708230431
02 .1185854863563744 .05 .3796651362051755 .0636071597544373 .05 .38560914392329
3 -.00449471525343223 .05 .37940343102861 -.0619330628434846 .05 .36539592635646
 -.1184564568863844 .05 .347285627361943 -.1664803260763125 .05 .315570685665377
5 -.219654716634091 .05 .2763725447697905 -.2678478413348715 .05 .23817121369400
25 -.301613772526955 .05 .180451433662892 -.3405144953612595 .05 .12999890478716
72 -.361653313602202 .05 .0492381935239516 -.3701310315795565 .05 -.037249984375
0343 -.353541488622637 .05 -.1322612641594156 -.2997892784740935 .05 -.195504173
635138 -.2417174895046275 .05 -.232091752611031 -.195938121230337 .05 -.25167672
8282913 -.1668316391653315 .05 -.2649473379999345 -.140575383927988 .05 -.276179
7614592675 -.118494733202927 .05 -.289382474633984 -.0828811528121436 .05 -.2993
88681324718 -.0376183343162378 .05 -.3010254597705935 .01734350640100315 .05 -.2
903898423773225 .0907643287371308 .05 -.2524634583860475 .1737440691285075 .05 -
.1837261563854265 .242286967384819 .05 -.116054741077509 .2793257783195265 .05 -
.0557758675712588 .296630730617955 .05 .0102712771869053 .302390591642456 .05 .0
662765950474562 .295282252174418 .05 127 255 43 35 1 1 1 1 1 1 1 1 1 1 1 1 1 1 1
 1 1 1 1 1 1 1 1 1 1 1 1 1 1 1 1 1 1 1 1 1 1 1 1 1 1 1 1 128 255 43 36 -.0883672
011534623 -.0535460977930801 -.02545813408725375 0 .03998678470461105 .053990786
3972108 .0657589636185638 .1129499293621378 .1262172920391156 .1484132513983436
 .1722868906338495 .178369732307952 .2027363391775865 .2266042118103115 .2595815
26339549 .298860400383207 .3079071883585105 .342171357334516 .3711560129251085 .
3953551520996845 .43007409290173 .442890692093359 .494201300670637 .504983741292
244 .557915928149399 .615297228371204 .658028610927806 .67883406637955 .69835860
2800267 .707628949509277 .720547531529394 .733466113549512 .761410310391884 .785
860238242829 .811057768884591 .866204857210203 .911632798846538 .94645390220692
 .974541865912746 1 1.03998678470461 1.05399078639721 1.065758963618564 16 32 13
1 0 ?37 27 38 28 0 0 1 31 33 162 0 27 39 28 0 +0 0 .08 0 0 1 1 0 0 .053 16 27 12
5 0 ?40 19 32 33 0 0 1 31 39 164 0 38 41 33 0 +0 0 .08 0 0 1 1 0 0 .03 16 38 134
 0 ?42 32 43 39 0 0 1 31 41 225 0 44 45 39 0 +0 0 -.05 0 0 1 1 0 0 .053 16 44 19
5 0 ?46 43 47 41 0 0 1 31 45 226 0 43 48 41 0 +0 0 -.08 0 0 1 1 0 0 .053 16 43 1
89 0 ?49 38 44 45 0 0 1 31 48 228 0 47 0 45 0 +0 0 -.08 0 0 1 1 0 0 .03 16 47 19
2 0 ?50 44 0 48 0 0 1 17 50 0 51 50 50 0 52 47 0 0 +15 255 51 208 0 50 53 54 17
 52 0 55 52 52 0 50 47 0 0 -15 55 217 0 52 56 0 14 255 56 81 57 ?58 59 60 5 61 -
0 0 58 59 22 81 1 57 303 62 56 63 0 0 64 65 14 58 137 64 ?66 56 67 5 68 +0 0 66
 56 22 14 59 18 69 ?56 16 70 5 17 -0 0 56 16 22 15 60 153 0 42 56 55 51 255 61 9
9 0 56 71 72 0 +0 0 -.12 0 0 1 .03 1 0 0 13 22 10 0 0 0 0 0 0 8 14 14 14 122 73
 ?16 0 74 5 72 +0 0 16 0 22 81 1 73 306 62 14 75 0 69 76 77 14 16 27 76 ?59 14 2
4 5 6 +0 0 59 14 22 15 74 4 0 25 14 78 50 255 72 3 0 14 61 17 0 +.08932080390008
67 -.365824166318702 .05 0 0 1 1 0 0 50 17 24 0 59 72 6 0 +.0893208039000867 -.3
65824166318702 -.05 0 0 1 1 0 0 17 25 0 74 25 25 0 23 9 0 0 -15 78 119 0 79 14 0
 17 79 0 78 79 79 0 37 32 0 0 -17 37 0 80 37 37 0 79 32 0 0 +15 80 149 0 37 66 0
 14 66 145 81 ?82 58 83 5 71 -0 0 82 58 22 81 1 81 308 62 66 84 0 76 85 86 14 82
 201 85 ?53 66 87 5 88 +0 0 53 66 22 15 83 148 0 89 66 80 51 71 157 0 66 68 61 0
 -0 0 .08 0 0 -1 .053 -1 0 0 50 68 159 0 58 88 71 0 +0 0 .08 0 0 1 1 0 0 51 88 2
21 0 82 90 68 0 +0 0 -.08 0 0 1 .053 1 0 0 50 90 223 0 53 0 88 0 +0 0 -.08 0 0 -
1 1 0 0 14 53 206 91 ?0 82 51 5 90 +0 0 0 82 22 81 1 91 310 62 53 92 0 85 0 93 8
0 255 1 62 94 95 9000 1 1 1 1 1 1 1 1 0 FFFFTFTFFFFFFF1 81 1 92 282 96 53 0 91 9
7 0 98 81 1 85 309 62 82 97 0 81 91 99 82 255 1 93 625017030 81 1 97 281 96 82 0
 85 84 92 100 82 1 99 626983110 80 1 96 0 101 8001 0 0 0 0 3 5 0 0 0 FFFFTFTFFFF
FFF2 81 1 84 280 96 66 0 81 102 97 103 83 255 3 100 .792156862745098 .8196078431
37255 .933333333333333 81 1 102 279 96 58 0 64 63 84 104 83 3 103 .7921568627450
98 .819607843137255 .933333333333333 81 1 64 304 62 58 102 0 57 69 105 81 1 63 2
78 96 56 0 57 106 102 107 83 3 104 .792156862745098 .819607843137255 .9333333333
33333 81 1 106 277 96 59 0 69 108 63 109 83 3 107 .792156862745098 .819607843137
255 .933333333333333 81 1 69 305 62 59 106 0 64 73 110 81 1 108 276 96 16 0 76 7
5 106 111 83 3 109 .752941176470588 .752941176470588 1 81 1 76 307 62 16 108 0 7
3 81 112 81 1 75 275 96 14 0 73 0 108 113 83 3 111 .752941176470588 .75294117647
0588 1 83 3 113 .752941176470588 .752941176470588 1 82 1 112 400228545 82 1 110
 399966406 82 1 105 430571716 79 255 15 101 SDL/TYSA_COLOUR83 3 98 .792156862745
098 .819607843137255 .933333333333333 79 14 95 SWEntUnchanged17 89 0 83 89 89 0
 40 27 0 0 -17 40 0 67 40 40 0 89 27 0 0 +15 67 139 0 40 58 114 15 114 140 0 115
 58 0 17 115 0 114 115 115 0 42 38 0 0 -17 42 0 60 42 42 0 115 38 0 0 +15 87 204
 0 49 82 116 17 49 0 87 49 49 0 117 43 0 0 +15 116 205 0 118 82 0 17 118 0 116 1
18 118 0 46 44 0 0 -17 46 0 70 46 46 0 118 44 0 0 +15 70 183 0 46 59 119 15 119
 19 0 26 59 0 17 26 0 119 26 26 0 120 19 0 0 +17 120 0 121 120 120 0 26 19 0 0 -
15 121 28 0 120 16 0 17 117 0 54 117 117 0 49 43 0 0 -15 54 209 0 117 53 0 82 1
 86 424214724 15 24 26 0 23 16 121 82 1 77 432144580 82 1 65 411435206 19 15 32
 0 1 0 8 5 S0 136 20 3 39 3 43 2 TTF1 122 123 124 135 21 2 0 45 117 122 -.055775
8675712588 .296630730617955 -.05 .0102712771869053 .302390591642456 -.05 .066276
5950474562 .295282252174418 -.05 .1115652086231048 .285423132424432 -.05 .161284
807346777 .272184396433255 -.05 .20923558938205 .25428082369891 -.05 .2614451707
80224 .228313222155538 -.05 .2972929059134725 .20682569069031 -.05 .327504630593
2825 .1852228470455905 -.05 .352626738940583 .15604180591558 -.05 .3647708230431
02 .1185854863563744 -.05 .3796651362051755 .0636071597544373 -.05 .385609143923
293 -.00449471525343223 -.05 .37940343102861 -.0619330628434846 -.05 .3653959263
5646 -.1184564568863844 -.05 .347285627361943 -.1664803260763125 -.05 .315570685
6653775 -.219654716634091 -.05 .2763725447697905 -.2678478413348715 -.05 .238171
2136940025 -.301613772526955 -.05 .180451433662892 -.3405144953612595 -.05 .1299
989047871672 -.361653313602202 -.05 .0492381935239516 -.3701310315795565 -.05 -.
0372499843750343 -.353541488622637 -.05 -.1322612641594156 -.2997892784740935 -.
05 -.195504173635138 -.2417174895046275 -.05 -.232091752611031 -.195938121230337
 -.05 -.251676728282913 -.1668316391653315 -.05 -.2649473379999345 -.14057538392
7988 -.05 -.2761797614592675 -.118494733202927 -.05 -.289382474633984 -.08288115
28121436 -.05 -.299388681324718 -.0376183343162378 -.05 -.3010254597705935 .0173
4350640100315 -.05 -.2903898423773225 .0907643287371308 -.05 -.2524634583860475
 .1737440691285075 -.05 -.1837261563854265 .242286967384819 -.05 -.1160547410775
09 .2793257783195265 -.05 -.0557758675712588 .296630730617955 -.05 .010271277186
9053 .302390591642456 -.05 .0662765950474562 .295282252174418 -.05 127 43 123 1
 1 1 1 1 1 1 1 1 1 1 1 1 1 1 1 1 1 1 1 1 1 1 1 1 1 1 1 1 1 1 1 1 1 1 1 1 1 1 1 1
 1 1 128 43 124 -.0883672011534623 -.0535460977930801 -.02545813408725375 0 .039
98678470461105 .0539907863972108 .0657589636185638 .1129499293621378 .1262172920
391156 .1484132513983436 .1722868906338495 .178369732307952 .2027363391775865 .2
266042118103115 .259581526339549 .298860400383207 .3079071883585105 .34217135733
4516 .3711560129251085 .3953551520996845 .43007409290173 .442890692093359 .49420
1300670637 .504983741292244 .557915928149399 .615297228371204 .658028610927806 .
67883406637955 .698358602800267 .707628949509277 .720547531529394 .7334661135495
12 .761410310391884 .785860238242829 .811057768884591 .866204857210203 .91163279
8846538 .94645390220692 .974541865912746 1 1.03998678470461 1.05399078639721 1.0
65758963618564 74 4 CI16 index_map_offset0 0 1 dCCZ20 13 10 0 0 91 125 126 127 1
28 129 130 11 92 2 0 0 0 0 0 0 0 0 0 0 81 2 125 235 131 1 0 126 0 0 0 132 81 2 1
26 237 133 1 125 127 0 0 0 134 81 1 127 245 135 1 126 128 0 0 136 81 2 128 255 1
37 1 127 129 0 0 0 138 81 2 129 269 139 1 128 130 0 0 140 0 81 2 130 272 141 1 1
29 11 0 0 0 0 81 3 11 273 142 1 130 2 0 0 143 144 145 80 3 142 146 147 9000 0 1
 0 0 1 1 1 1 0 FFTFFFFFFFFFFF1 1 1 82 1 143 1265115 82 1 144 159 82 3 145 126515
4 1265172 1265174 79 13 147 TempAxisFaces80 2 141 148 149 9000 0 0 0 0 3 5 0 0 0
 FFTFFFFFFFFFFF9 1 79 16 149 BODY_RECIPE_200180 2 139 150 151 8004 0 0 0 0 3 5 0
 0 0 FFTFFFFFFFFFFF2 3 83 1 140 1e3 79 16 151 SDL/TYSA_DENSITY80 2 137 152 153 9
000 0 0 0 0 3 5 0 0 0 FFTFFFFFFFFFFF9 1 82 1 138 1 79 24 153 BODY_IN_LIGHTWEIGHT
_PERM80 1 135 154 155 9000 1 1 1 1 1 1 1 1 0 FFTFFFFFFFFFFF1 82 1 136 1120187 79
 10 155 BODY_MATCH80 2 133 156 157 9000 0 0 0 0 3 5 0 0 0 FFTFFFFFFFFFFF9 1 82 1
 134 283 79 30 157 LAST_BODY_MODIFYING_FEATURE_ID80 2 131 158 159 9000 0 0 0 0 3
 5 0 0 0 FFTFFFFFFFFFFF9 1 82 1 132 159 79 19 159 ENT_TIME_STAMP_200180 2 10 160
 161 9000 0 0 0 0 3 5 0 0 0 FFTFFFFFFFFFFF9 1 82 1 12 107 79 12 161 ATOM_ID_2001
1 0 
