**ABCDEFGHIJKLMNOPQRSTUVWXYZabcdefghijklmnopqrstuvwxyz**************************
**PARASOLID !"#$%&'()*+,-./:;<=>?@[\]^_`{|}~0123456789**************************
**PART1;
MC=AMD64;
MC_MODEL=Intel64 Family 6 Model 142 Stepping 10, GenuineIntel;
MC_ID=unknown;
OS=Windows_NT;
OS_RELEASE=unknown;
FRU=Parasolid Version 31.0, build 290,  9- 1-2019;
APPL=SOLIDWORKS 2019-2020260;
SITE=;
USER=unknown;
FORMAT=text;
GUISE=transmit;
KEY=followerpara;
FILE=followerpara.x_t;
DATE=Mon Jun 27 19:35:57 2022;
**PART2;
SCH=SCH_3100290_31001;
USFLD_SIZE=0;
**PART3;
**END_OF_HEADER*****************************************************************
T51 : TRANSMIT FILE created by modeller version 310029023 SCH_3100290_31001_1300
6215 0 12 34 CCCCCCI4 mesh1006 0 I8 polyline1008 0 CCCCCCCDI5 owner1040 0 CCCCCC
I13 boundary_mesh1006 0 I17 boundary_polyline1008 0 CCCA16 index_map_offset0 0 1
 dA9 index_map82 0 A17 node_id_index_map82 0 A20 schema_embedding_map82 0 A5 chi
ld12 0 A14 lowest_node_id0 0 1 dA16 mesh_offset_data206 0 Z1 830 2 3 0 0 0 0 0 0
 1e3 1e-8 0 4 0 1 0 1 1 5 6 7 8 0 0 9 10 11 0 0 0 0 0 0 0 81 255 2 2 807 12 1 13
 0 0 0 0 14 70 11 CI9 list_type0 0 1 uI10 notransmit0 0 1 lCCCDCCDI12 finger_ind
ex0 0 1 dI12 finger_block1012 0 CZ3 0 4 T1 0 0 11 20 1 15 15 13 255 5 99 0 1 0 1
6 0 0 17 0 53 255 6 560 0 18 19 0 0 +.04 -.49 -.01 .01 0 0 1 1 0 0 31 255 7 563
 0 20 21 0 0 +.04 -.49 -.01 0 1 0 0 0 1 .01 29 255 8 637 0 11 22 0 .05 -.25 -.09
 19 8 CCCCCCCA5 owner12 0 Z9 33 0 1 17 0 23 V0 16 255 10 482 0 ?24 0 25 26 0 0 1
 18 255 11 635 0 27 0 28 8 ?1 17 255 27 0 29 30 30 11 31 32 0 33 +18 28 459 0 34
 11 35 22 ?1 17 34 0 36 37 38 28 39 40 0 41 +18 35 451 0 24 28 42 43 ?1 29 22 46
1 0 28 43 8 .04 -.49 -600076931582203e-31 29 43 453 0 35 44 22 .04 -.01 -1224646
799147352e-33 29 44 440 0 42 45 43 .05 -.01 -.01 18 42 438 0 46 35 47 44 ?1 29 4
5 437 0 47 48 44 .05 -.01 -.09 18 47 435 0 49 42 50 45 ?1 29 48 429 0 50 51 45 .
04 -.01 -.1 18 50 427 0 52 47 53 48 ?1 29 51 416 0 53 54 48 .05 -.49 -.09 18 53
 414 0 55 50 56 51 ?1 29 54 413 0 56 57 51 .05 -.49 -.01 18 56 411 0 58 53 59 54
 ?1 29 57 405 0 59 60 54 .04 -.49 -.1 18 59 403 0 61 56 62 57 ?1 29 60 222 0 62
 63 57 .01 -.5 -.09 18 62 220 0 64 59 65 60 ?1 29 63 218 0 65 66 60 .01 -.5 -.01
 18 65 216 0 67 62 68 63 ?1 29 66 214 0 68 69 63 .04 -.5 -.01 18 68 212 0 70 65
 71 66 ?1 29 69 211 0 71 72 66 .04 -.5 -.09 18 71 209 0 73 68 74 69 ?1 29 72 192
 0 74 75 69 0 -.49 -600076931582203e-31 18 74 190 0 76 71 77 72 ?1 29 75 189 0 7
7 78 72 0 -.01 -1224646799147352e-33 18 77 187 0 79 74 80 75 ?1 29 78 170 0 80 8
1 75 0 -.01 -.1 18 80 168 0 82 77 83 78 ?1 29 81 167 0 83 84 78 0 -.49 -.1 18 83
 165 0 85 80 86 81 ?1 29 84 158 0 86 87 81 .04 0 -.09 18 86 156 0 88 83 89 84 ?1
 29 87 154 0 89 90 84 .04 0 -.01 18 89 152 0 91 86 92 87 ?1 29 90 150 0 92 93 87
 .01 0 -.01 18 92 148 0 94 89 95 90 ?1 29 93 147 0 95 96 90 .01 0 -.09 18 95 145
 0 97 92 98 93 ?1 29 96 679 0 98 0 93 .05 -.25 -.01 18 98 660 0 30 95 0 96 ?1 17
 30 0 29 27 27 98 33 99 0 31 +15 255 29 665 0 30 100 0 17 33 0 101 49 102 11 30
 99 0 103 -16 99 650 0 ?30 104 32 105 32 32 1 17 31 0 106 58 107 98 27 32 0 108
 -15 106 639 0 107 16 0 17 58 0 106 109 31 56 108 110 0 111 +17 107 0 106 31 109
 11 112 113 0 0 +16 32 653 0 ?27 99 0 105 99 99 1 17 108 0 114 115 116 98 58 110
 0 102 -15 114 541 0 116 117 0 17 115 0 114 118 108 42 102 119 0 120 -17 116 0 1
14 108 121 56 122 20 0 0 +16 110 633 0 ?58 119 40 123 119 119 1 17 102 0 101 33
 124 98 115 119 0 0 +15 101 4 0 102 125 0 17 124 0 101 102 49 42 126 127 0 0 +16
 119 467 0 ?102 128 110 123 110 110 1 16 128 636 0 ?49 113 119 129 113 113 1 30
 255 123 469 0 119 130 129 0 +.05 -.49 -.01 0 -1 -1224646799147352e-31 31 130 46
4 0 40 131 123 0 +.04 -.49 -.01 -1 0 0 0 0 1 .01 30 129 474 0 113 123 132 0 +.05
 -.01 -.09 0 1 1110223024625156e-31 16 113 472 0 ?107 25 128 129 128 128 1 30 13
2 479 0 25 129 26 0 -.04 -.49 -.1 0 1 1110223024625156e-31 16 25 477 0 ?61 10 11
3 132 0 0 1 30 26 484 0 10 132 133 0 -.04 -.01 -1734723475976805e-33 0 -1 -12246
46799147352e-31 31 133 527 0 134 26 135 0 +.04 -.49 -.09 0 -1 0 0 0 -1 .01 16 13
4 515 0 ?136 137 20 133 0 0 1 31 135 526 0 137 133 21 0 +.04 -.01 -.09 0 -1 -173
472347597681e-30 0 173472347597681e-30 -1 .01 16 137 512 0 ?138 139 134 135 0 0
 1 31 21 564 0 140 135 7 0 +.04 -.01 -.01 0 1 1734723475976805e-31 0 -1734723475
976805e-31 1 .01 16 140 553 0 ?46 20 104 21 0 0 1 17 46 0 141 142 143 42 118 140
 0 115 +16 20 549 0 ?116 134 140 7 0 0 1 16 104 656 0 ?144 140 99 145 0 0 1 17 1
44 0 146 144 144 0 147 104 0 0 +31 145 678 0 104 0 105 0 +.38 -.25 -.05 1 0 0 0
 0 -1 .04 31 105 677 0 99 145 148 0 +.05 -.25 -.05 1 0 0 0 0 -1 .04 30 148 74 0
 149 105 150 0 +0 0 0 0 -1 -1224646799147352e-31 16 149 188 0 ?151 152 153 148 0
 0 1 30 150 72 0 152 148 154 0 +0 0 -.1 0 1 1110223024625156e-31 16 152 166 0 ?1
55 156 149 150 0 0 1 30 154 151 0 156 150 157 0 +.01 0 0 0 0 1 16 156 149 0 ?94
 158 152 154 0 0 1 30 157 155 0 158 154 159 0 -.05 0 -.01 -1 0 0 16 158 153 0 ?1
60 161 156 157 0 0 1 30 159 159 0 161 157 162 0 +.05 0 -.09 -1 0 0 16 161 157 0
 ?163 164 158 159 0 0 1 30 162 162 0 164 159 165 0 -.04 0 -.1 0 0 1 16 164 160 0
 ?166 167 161 162 0 0 1 30 165 179 0 167 162 168 0 +.05 -.49 -.1 -1 0 0 16 167 4
04 0 ?85 169 164 165 0 0 1 30 168 184 0 169 165 170 0 -.05 -.01 -.1 -1 0 0 16 16
9 182 0 ?171 172 167 168 0 0 1 30 170 201 0 172 168 173 0 -.05 -.49 -60007693158
2203e-31 -1 0 0 16 172 199 0 ?41 174 169 170 0 0 1 30 173 206 0 174 170 175 0 +.
05 -.01 -1224646799147352e-33 -1 0 0 16 174 452 0 ?79 176 172 173 0 0 1 30 175 2
15 0 176 173 177 0 -.04 -.5 -612323399573677e-31 0 0 -1 16 176 213 0 ?178 179 17
4 175 0 0 1 30 177 219 0 179 175 180 0 +.05 -.5 -.01 -1 0 0 16 179 217 0 ?67 181
 176 177 0 0 1 30 180 223 0 181 177 182 0 -.05 -.5 -.09 -1 0 0 16 181 221 0 ?183
 184 179 180 0 0 1 30 182 226 0 184 180 185 0 +.01 -.5 -612323399573677e-31 0 0
 -1 16 184 224 0 ?64 186 181 182 0 0 1 30 185 231 0 186 182 187 0 -0 -.01 0 0 0
 1 16 186 229 0 ?82 188 184 185 0 0 1 30 187 236 0 188 185 189 0 -0 -.49 0 0 0 -
1 16 188 234 0 ?76 127 186 187 0 0 1 30 189 241 0 127 187 190 0 +.05 -.01 0 0 0
 1 16 127 436 0 ?124 191 188 189 0 0 1 30 190 246 0 191 189 192 0 +.05 -.49 -.1
 0 0 -1 16 191 412 0 ?109 193 127 190 0 0 1 32 255 192 301 0 194 190 195 0 -.01
 -.01 -.09 -.707106781186548 0 .707106781186548 .707106781186548 0 .707106781186
548 .01414213562373094 .01 16 194 285 0 ?97 153 196 192 0 0 1 32 195 299 0 153 1
92 197 0 -.01 -.01 -.01 .707106781186548 0 .707106781186548 -.707106781186548 0
 .707106781186548 .01414213562373094 .01 16 153 280 0 ?198 149 194 195 0 0 1 32
 197 354 0 139 195 199 0 +.01 -.49 -.09 .707106781186548 0 -.707106781186548 -.7
07106781186548 0 -.707106781186548 .01414213562373094 .01 16 139 338 0 ?200 196
 137 197 0 0 1 32 199 352 0 196 197 201 0 +.01 -.49 -.01 -.707106781186548 0 -.7
07106781186548 .707106781186548 0 -.707106781186548 .01414213562373094 .01 16 19
6 333 0 ?202 194 139 199 0 0 1 31 201 408 0 193 199 203 0 +.04 -.49 -.09 -1 0 0
 0 0 1 .01 16 193 406 0 ?204 205 191 201 0 0 1 31 203 419 0 205 201 206 0 -.04 -
.49 -.01 0 0 1 1 0 0 .01 16 205 417 0 ?70 207 193 203 0 0 1 31 206 424 0 207 203
 208 0 +.04 -.49 -.09 0 0 1 1 0 0 .01 16 207 422 0 ?55 209 205 206 0 0 1 31 208
 432 0 209 206 210 0 +.04 -.01 -.09 -1 0 0 0 0 1 .01 16 209 430 0 ?52 211 207 20
8 0 0 1 31 210 443 0 211 208 212 0 +.04 -.01 -.01 0 0 -1 -1 0 0 .01 16 211 441 0
 ?120 213 209 210 0 0 1 31 212 448 0 213 210 131 0 -.04 -.01 -.09 0 0 -1 -1 0 0
 .01 16 213 446 0 ?88 214 211 212 0 0 1 31 131 456 0 214 212 130 0 +.04 -.01 -.0
1 -1 0 0 0 0 1 .01 16 214 454 0 ?91 40 213 131 0 0 1 17 91 0 215 216 217 89 143
 214 0 160 +16 40 462 0 ?34 110 214 130 0 0 1 15 215 265 0 217 218 0 17 216 0 21
5 219 91 92 160 158 0 198 -17 217 0 215 91 219 35 79 174 0 143 -17 143 0 141 46
 142 35 91 214 0 118 -17 160 0 220 166 94 89 216 158 0 221 +15 220 146 0 160 222
 0 17 166 0 220 163 160 86 221 164 0 223 +17 94 0 220 160 163 92 224 156 0 216 +
17 221 0 225 120 88 89 166 164 0 142 -15 225 267 0 126 226 0 17 120 0 225 126 22
1 42 142 211 0 124 +17 88 0 225 221 126 86 227 213 0 166 +17 142 0 141 143 46 89
 120 211 0 0 -15 141 543 0 142 228 0 14 255 228 542 229 ?100 117 141 5 230 +0 0
 100 117 23 81 1 229 808 231 228 232 0 0 233 234 14 100 661 233 ?235 228 236 5 2
37 -0 0 235 228 23 14 117 540 238 ?228 18 114 5 19 +0 0 228 18 23 53 230 562 0 2
28 239 19 0 +.04 -.01 -.01 .01 0 0 1 1 0 0 13 23 34 0 0 0 0 0 0 9 16 14 16 641 2
40 ?241 0 106 5 242 +125 125 241 0 23 81 1 240 811 231 16 243 0 238 244 245 14 2
41 90 244 ?246 16 247 5 248 -0 0 246 16 23 50 255 242 3 0 125 237 249 0 +.05 0 0
 1 0 0 0 0 -1 14 125 1 250 ?251 222 101 5 242 +16 16 251 222 23 81 1 250 813 231
 125 252 0 244 253 254 14 251 48 253 ?218 125 255 5 249 -0 0 218 125 23 14 222 8
4 256 ?125 257 220 5 258 -0 0 125 257 23 81 1 256 815 231 222 259 0 253 260 261
 14 257 86 260 ?222 246 262 5 263 -0 0 222 246 23 50 258 91 0 222 249 263 0 +.05
 0 0 0 -1 0 0 0 -1 50 249 70 0 251 242 258 0 +0 0 0 1 0 0 0 0 -1 50 263 92 0 257
 258 264 0 +.05 0 -.1 0 -1110223024625156e-31 1 0 -1 -1110223024625156e-31 50 26
4 93 0 246 263 248 0 +.05 -.5 -612323399573677e-31 0 1 0 0 0 1 14 246 88 265 ?25
7 241 266 5 264 -0 0 257 241 23 50 248 94 0 241 264 267 0 +.05 0 0 0 12246467991
47352e-31 -1 0 1 1224646799147352e-31 51 255 267 297 0 268 248 269 0 +.05 -.01 -
.09 -1 0 0 .01 0 0 1 14 268 270 270 ?271 272 273 5 267 +0 0 271 272 23 51 269 29
6 0 272 267 274 0 +.01 -.01 0 0 0 1 .01 1 0 0 14 272 268 275 ?268 226 276 5 269
 +0 0 268 226 23 51 274 295 0 226 269 277 0 +.04 -.01 0 0 0 -1 .01 -1 0 0 14 226
 266 278 ?272 218 225 5 274 +0 0 272 218 23 51 277 294 0 218 274 279 0 +.05 -.01
 -.01 -1 0 0 .01 0 0 1 14 218 264 280 ?226 251 215 5 277 +0 0 226 251 23 51 279
 350 0 281 277 282 0 +.05 -.49 -.09 -1 0 0 .01 0 0 1 14 281 323 283 ?284 285 286
 5 279 +0 0 284 285 23 51 282 349 0 285 279 287 0 +.01 -.49 -612323399573677e-31
 0 0 -1 .01 -1 0 0 14 285 321 288 ?281 289 290 5 282 +0 0 281 289 23 51 287 348
 0 289 282 291 0 +.04 -.49 0 0 0 1 .01 1 0 0 14 289 319 292 ?285 271 293 5 287 +
0 0 285 271 23 51 291 347 0 271 287 294 0 +.05 -.49 -.01 -1 0 0 .01 0 0 1 14 271
 317 295 ?289 268 36 5 291 +0 0 289 268 23 53 294 525 0 296 291 297 0 +.04 -.49
 -.09 .01 0 0 1 1 0 0 14 296 505 298 ?18 299 300 5 294 +0 0 18 299 23 51 297 524
 0 299 294 239 0 +.04 999200722162641e-32 -.09 0 -1 -1110223024625156e-31 .01 0
 1110223024625156e-31 -1 14 299 503 301 ?296 284 302 5 297 +0 0 296 284 23 53 23
9 523 0 284 297 230 0 +.04 -.01 -.09 .01 0 0 1 1 0 0 14 284 501 303 ?299 281 304
 5 239 +0 0 299 281 23 81 1 303 828 231 284 305 0 301 306 307 15 304 502 0 308 2
84 0 17 308 0 304 227 309 86 52 209 0 0 -17 227 0 304 309 308 47 88 213 0 138 -1
7 309 0 304 308 227 50 138 137 0 310 -17 52 0 273 311 223 50 308 209 0 171 +15 2
73 271 0 223 268 0 17 311 0 273 97 52 80 171 169 0 312 -17 223 0 273 52 97 86 16
3 161 0 308 -17 171 0 262 61 155 50 311 169 0 309 +15 262 85 0 171 257 0 17 61 0
 262 85 171 59 310 25 0 313 +17 155 0 262 171 85 80 314 152 0 311 +17 85 0 262 1
55 61 83 313 167 0 200 +17 314 0 255 76 82 83 155 152 0 0 -15 255 49 0 314 251 0
 17 76 0 255 315 314 74 316 188 0 151 +17 82 0 255 314 315 80 317 186 0 155 +17
 315 0 255 82 76 77 151 149 0 219 -17 317 0 276 198 312 77 82 186 0 0 -15 276 26
9 0 198 272 0 17 198 0 276 224 317 92 219 153 0 0 +17 312 0 276 317 224 80 97 19
4 0 0 -17 224 0 276 312 198 95 94 156 0 163 -17 97 0 273 223 311 95 312 194 0 22
4 +17 163 0 220 94 166 95 223 161 0 0 +17 219 0 215 217 216 77 198 153 0 317 -17
 151 0 247 41 79 74 315 149 0 37 +15 247 89 0 41 241 0 17 41 0 247 24 151 28 37
 172 0 122 +17 79 0 247 151 24 77 217 174 0 315 +17 37 0 36 318 34 74 41 172 0 2
02 -15 36 318 0 38 271 0 17 318 0 36 38 37 65 202 196 0 319 -17 202 0 290 316 31
9 74 318 196 0 0 +15 290 322 0 202 285 0 17 316 0 290 320 202 83 76 188 0 314 -1
7 319 0 290 202 320 65 64 184 0 0 -17 320 0 290 319 316 62 200 139 0 0 -17 64 0
 266 183 67 62 319 184 0 321 +15 266 210 0 67 246 0 17 183 0 266 178 64 71 321 1
81 0 0 +17 67 0 266 64 178 65 38 179 0 318 +17 321 0 286 200 204 62 183 181 0 32
0 -15 286 324 0 313 281 0 17 200 0 286 313 321 83 320 139 0 316 +17 204 0 286 32
1 313 71 322 193 0 323 +17 313 0 286 204 200 59 85 167 0 324 -17 322 0 300 136 7
3 59 204 193 0 0 -17 323 0 293 55 70 71 178 176 0 183 -15 293 320 0 323 289 0 17
 55 0 293 111 323 53 73 207 0 109 +17 70 0 293 323 111 68 325 205 0 178 +17 178
 0 266 67 183 68 323 176 0 38 +17 38 0 36 34 318 68 67 179 0 39 -17 39 0 326 325
 122 68 34 40 0 0 -15 326 539 0 39 18 0 17 325 0 326 122 39 56 70 205 0 116 -17
 122 0 326 39 325 28 116 20 0 121 -17 121 0 114 116 118 28 24 10 0 0 -17 118 0 1
14 121 115 35 46 140 0 0 -17 24 0 247 79 41 35 121 10 0 217 +14 18 538 306 ?117
 296 326 5 6 +0 0 117 296 23 81 1 306 829 231 18 327 0 303 328 329 80 255 1 231
 330 331 9000 1 1 1 1 1 1 1 1 0 FFFFTFTFFFFFFF1 81 1 327 755 332 18 333 306 334
 335 336 81 1 328 830 231 235 337 0 306 0 338 82 255 1 329 -371720085 14 235 666
 328 ?0 100 146 5 339 +0 0 0 100 23 81 1 337 759 332 235 0 328 340 0 341 82 1 33
8 102170734 80 1 332 0 342 8001 0 0 0 0 3 5 0 0 0 FFFFTFTFFFFFFF2 81 1 340 758 3
32 100 0 233 232 337 343 83 255 3 341 1 .501960784313726 .501960784313726 81 1 2
33 809 231 100 340 0 229 238 344 81 1 232 757 332 228 345 229 335 340 346 83 3 3
43 1 .501960784313726 .501960784313726 81 1 345 580 347 228 0 232 348 333 349 81
 1 335 756 332 117 0 238 327 232 350 83 3 346 1 .501960784313726 .50196078431372
6 81 1 238 810 231 117 335 0 233 240 351 83 3 350 1 .501960784313726 .5019607843
13726 82 1 351 -372899730 80 1 347 352 353 9000 0 0 0 0 3 5 0 0 0 FFFFTFFFFFFFFF
1 81 1 348 579 347 284 0 305 354 345 355 81 1 333 581 347 18 0 327 345 0 356 82
 1 349 1 82 1 356 1 81 1 305 752 332 284 348 303 357 358 359 81 1 354 578 347 29
6 0 334 0 348 360 82 1 355 1 81 1 334 754 332 296 354 298 358 327 361 82 1 360 1
 81 1 298 826 231 296 334 0 295 301 362 81 1 358 753 332 299 0 301 305 334 363 8
3 3 361 1 .501960784313726 .501960784313726 81 1 301 827 231 299 358 0 298 303 3
64 83 3 363 1 .501960784313726 .501960784313726 82 1 364 -376438674 81 1 295 825
 231 271 365 0 292 298 366 82 1 362 -377618325 81 1 365 748 332 271 0 295 367 36
8 369 81 1 292 824 231 289 368 0 288 295 370 82 1 366 -963248021 81 1 368 749 33
2 289 0 292 365 371 372 81 1 288 823 231 285 371 0 283 292 373 82 1 370 -9643621
33 81 1 371 750 332 285 0 288 368 357 374 81 1 283 822 231 281 357 0 280 288 375
 82 1 373 -965541783 81 1 357 751 332 281 0 283 371 305 376 81 1 280 821 231 218
 377 0 278 283 378 82 1 375 -967114645 81 1 377 744 332 218 0 280 379 380 381 81
 1 278 820 231 226 380 0 275 280 382 82 1 378 -968294293 81 1 380 745 332 226 0
 278 377 383 384 81 1 275 819 231 272 383 0 270 278 385 82 1 382 -969408405 81 1
 383 746 332 272 0 275 380 367 386 81 1 270 818 231 268 367 0 265 275 387 82 1 3
85 -970588055 81 1 367 747 332 268 0 270 383 365 388 81 1 265 817 231 246 389 0
 260 270 390 82 1 387 -972160917 81 1 389 739 332 246 0 265 391 392 393 81 1 260
 816 231 257 392 0 256 265 394 82 1 390 -1742667669 81 1 392 740 332 257 0 260 3
89 259 395 82 1 394 -1742929813 81 1 259 741 332 222 0 256 392 252 396 83 3 395
 1 .501960784313726 .501960784313726 81 1 252 742 332 125 0 250 259 379 397 83 3
 396 1 .501960784313726 .501960784313726 81 1 379 743 332 251 0 253 252 377 398
 83 3 397 1 .501960784313726 .501960784313726 81 1 253 814 231 251 379 0 250 256
 399 83 3 398 1 .501960784313726 .501960784313726 82 1 399 -1744109463 81 1 391
 738 332 241 0 244 243 389 400 83 3 393 1 .501960784313726 .501960784313726 81 1
 244 812 231 241 391 0 240 250 401 81 1 243 737 332 16 0 240 0 391 402 83 3 400
 1 .501960784313726 .501960784313726 83 3 402 1 .501960784313726 .50196078431372
6 82 1 401 -1742405525 83 3 388 1 .501960784313726 .501960784313726 83 3 386 1 .
501960784313726 .501960784313726 83 3 384 1 .501960784313726 .501960784313726 83
 3 381 1 .501960784313726 .501960784313726 83 3 376 1 .501960784313726 .50196078
4313726 83 3 374 1 .501960784313726 .501960784313726 83 3 372 1 .501960784313726
 .501960784313726 83 3 369 1 .501960784313726 .501960784313726 83 3 359 1 .50196
0784313726 .501960784313726 79 255 18 353 FILLET_CORNER_FACE82 1 344 104136814 7
9 15 342 SDL/TYSA_COLOUR15 146 668 0 144 235 0 50 339 676 0 235 0 237 0 +.38 -.2
5 -.05 1 0 0 0 0 -1 51 237 674 0 100 339 242 0 -.38 -.25 -.05 -1 0 0 .04 0 0 1 8
3 3 336 1 .501960784313726 .501960784313726 79 14 331 SWEntUnchanged17 111 0 293
 70 55 56 109 191 0 325 -17 109 0 106 107 58 53 111 191 0 112 +17 112 0 302 324
 103 53 107 113 0 136 -15 302 504 0 138 299 0 17 324 0 302 310 112 59 136 134 0
 322 -17 103 0 302 112 138 11 49 128 0 107 -17 136 0 300 73 322 53 324 134 0 0 +
15 300 506 0 136 296 0 17 73 0 300 322 136 71 55 207 0 204 -17 138 0 302 103 310
 47 309 137 0 0 +17 49 0 101 124 33 47 103 128 0 126 +17 126 0 225 88 120 47 124
 127 0 227 -17 310 0 302 138 324 50 61 25 0 0 -82 1 307 -375259029 82 1 261 -174
3191957 82 1 254 -1749745554 82 1 245 107741294 51 19 561 0 117 230 6 0 +.04 122
4646799147352e-33 -.01 0 1 1224646799147352e-31 .01 0 -1224646799147352e-31 1 15
 236 664 0 147 100 29 17 147 0 236 147 147 0 144 104 0 0 -82 1 234 -374079381 19
 17 100 0 1 0 9 5 S0 74 4 CI16 index_map_offset0 0 1 dCCZ20 15 11 0 0 328 333 40
3 404 405 406 407 408 13 337 2 0 0 0 0 0 0 0 0 0 81 2 403 682 409 1 0 404 0 0 0
 410 81 2 404 686 411 1 403 405 0 0 0 412 81 1 405 693 413 1 404 406 0 0 414 81
 2 406 696 415 1 405 407 0 0 0 416 81 2 407 727 417 1 406 408 0 0 418 0 81 2 408
 730 419 1 407 13 0 0 0 0 81 3 13 731 420 1 408 2 0 0 421 422 423 80 3 420 424 4
25 9000 0 1 0 0 1 1 1 1 0 FFTFFFFFFFFFFF1 1 1 82 1 421 1267836 82 1 422 109 82 1
 423 1268016 79 13 425 TempAxisFaces80 2 419 426 427 9000 0 0 0 0 3 5 0 0 0 FFTF
FFFFFFFFFF9 1 79 16 427 BODY_RECIPE_200180 2 417 428 429 8004 0 0 0 0 3 5 0 0 0
 FFTFFFFFFFFFFF2 3 83 1 418 1e3 79 16 429 SDL/TYSA_DENSITY80 2 415 430 431 9000
 0 0 0 0 3 5 0 0 0 FFTFFFFFFFFFFF9 1 82 1 416 1 79 24 431 BODY_IN_LIGHTWEIGHT_PE
RM80 1 413 432 433 9000 1 1 1 1 1 1 1 1 0 FFTFFFFFFFFFFF1 82 1 414 956339 79 10
 433 BODY_MATCH80 2 411 434 435 9000 0 0 0 0 3 5 0 0 0 FFTFFFFFFFFFFF9 1 82 1 41
2 47 79 30 435 LAST_BODY_MODIFYING_FEATURE_ID80 2 409 436 437 9000 0 0 0 0 3 5 0
 0 0 FFTFFFFFFFFFFF9 1 82 1 410 109 79 19 437 ENT_TIME_STAMP_200180 2 12 438 439
 9000 0 0 0 0 3 5 0 0 0 FFTFFFFFFFFFFF9 1 82 1 14 102 79 12 439 ATOM_ID_20011 0
 
